# xmcd
#
# Track frame offsets:
#	150
#	17787
#	27337
#	53142
#	78155
#	104642
#	126125
#	143807
#	160182
#	171760
#	186132
#
# Disc length: 2729 seconds
#
# Revision: 1
# Processed by: cddbd v1.5.1PL0 Copyright (c) Steve Scherf et al.
# Submitted via: audiograbber 1.80
#
DISCID=8c0aa70b
DTITLE=Cheap Tequila - Stop and Listen
DYEAR=1900
DGENRE=
TTITLE0=Come along way
TTITLE1=Crawl
TTITLE2=Don't let you down
TTITLE3=Feel the pain
TTITLE4=Cold outside
TTITLE5=Halleluja
TTITLE6=Hot cookin' boogie
TTITLE7=A good friend
TTITLE8=Great balls of fire
TTITLE9=30 days
TTITLE10=Mean old world
EXTD=
EXTT0=
EXTT1=
EXTT2=
EXTT3=
EXTT4=
EXTT5=
EXTT6=
EXTT7=
EXTT8=
EXTT9=
EXTT10=
PLAYORDER=
